<mxfile host="Electron" agent="Mozilla/5.0 (Windows NT 10.0; Win64; x64) AppleWebKit/537.36 (KHTML, like Gecko) draw.io/24.7.8 Chrome/128.0.6613.36 Electron/32.0.1 Safari/537.36" version="24.7.8">
  <diagram name="Page-1" id="EIi1b8T024wn-bLrs_my">
    <mxGraphModel dx="1434" dy="836" grid="1" gridSize="10" guides="1" tooltips="1" connect="1" arrows="1" fold="1" page="1" pageScale="1" pageWidth="850" pageHeight="1100" math="0" shadow="0">
      <root>
        <mxCell id="0" />
        <mxCell id="1" parent="0" />
        <mxCell id="ugyuWdiLjoltaQnaMEnp-2" value="" style="rounded=0;whiteSpace=wrap;html=1;" vertex="1" parent="1">
          <mxGeometry x="40" y="40" width="310" height="660" as="geometry" />
        </mxCell>
        <mxCell id="ugyuWdiLjoltaQnaMEnp-3" value="" style="rounded=0;whiteSpace=wrap;html=1;" vertex="1" parent="1">
          <mxGeometry x="400" y="40" width="310" height="660" as="geometry" />
        </mxCell>
        <mxCell id="ugyuWdiLjoltaQnaMEnp-5" value="Magic 8 Ball (Title)" style="rounded=0;whiteSpace=wrap;html=1;" vertex="1" parent="1">
          <mxGeometry x="70" y="80" width="250" height="60" as="geometry" />
        </mxCell>
        <mxCell id="ugyuWdiLjoltaQnaMEnp-6" value="Ask Me a Question:" style="rounded=0;whiteSpace=wrap;html=1;" vertex="1" parent="1">
          <mxGeometry x="80" y="360" width="250" height="60" as="geometry" />
        </mxCell>
        <mxCell id="ugyuWdiLjoltaQnaMEnp-7" value="Enter your question Here:" style="rounded=0;whiteSpace=wrap;html=1;" vertex="1" parent="1">
          <mxGeometry x="80" y="430" width="250" height="90" as="geometry" />
        </mxCell>
        <mxCell id="ugyuWdiLjoltaQnaMEnp-8" value="Submit Question" style="rounded=0;whiteSpace=wrap;html=1;" vertex="1" parent="1">
          <mxGeometry x="80" y="530" width="250" height="60" as="geometry" />
        </mxCell>
        <mxCell id="ugyuWdiLjoltaQnaMEnp-9" value="Repeat the question here (from Memory)" style="rounded=0;whiteSpace=wrap;html=1;" vertex="1" parent="1">
          <mxGeometry x="425" y="80" width="265" height="60" as="geometry" />
        </mxCell>
        <mxCell id="ugyuWdiLjoltaQnaMEnp-11" value="Display the answer here" style="whiteSpace=wrap;html=1;aspect=fixed;" vertex="1" parent="1">
          <mxGeometry x="467.5" y="280" width="180" height="180" as="geometry" />
        </mxCell>
        <mxCell id="ugyuWdiLjoltaQnaMEnp-12" value="Return button" style="rounded=0;whiteSpace=wrap;html=1;" vertex="1" parent="1">
          <mxGeometry x="432.5" y="530" width="250" height="60" as="geometry" />
        </mxCell>
        <mxCell id="ugyuWdiLjoltaQnaMEnp-13" value="&lt;h1 style=&quot;margin-top: 0px;&quot;&gt;Main Screen&lt;/h1&gt;" style="text;html=1;whiteSpace=wrap;overflow=hidden;rounded=0;" vertex="1" parent="1">
          <mxGeometry x="130" width="150" height="40" as="geometry" />
        </mxCell>
        <mxCell id="ugyuWdiLjoltaQnaMEnp-14" value="&lt;h1 style=&quot;margin-top: 0px;&quot;&gt;Modal Screen&lt;/h1&gt;" style="text;html=1;whiteSpace=wrap;overflow=hidden;rounded=0;" vertex="1" parent="1">
          <mxGeometry x="470" width="170" height="40" as="geometry" />
        </mxCell>
      </root>
    </mxGraphModel>
  </diagram>
</mxfile>
